<?xml version="1.0" encoding="UTF-8" standalone="no"?><!DOCTYPE svg PUBLIC "-//W3C//DTD SVG 1.1//EN" "http://www.w3.org/Graphics/SVG/1.1/DTD/svg11.dtd"><svg width="100%" height="100%" viewBox="0 0 479 143" version="1.1" xmlns="http://www.w3.org/2000/svg" xmlns:xlink="http://www.w3.org/1999/xlink" xml:space="preserve" xmlns:serif="http://www.serif.com/" style="fill-rule:evenodd;clip-rule:evenodd;stroke-miterlimit:1.5;"><g><path d="M189.768,127.593l-188.853,0l49.901,-81.575l43.727,74.782l49.154,-74.782l46.071,81.575Zm-175.473,-7.5l71.147,0l-34.771,-59.465l-36.376,59.465Zm89.688,0l72.936,0l-33.707,-59.682l-39.229,59.682Z"/><path d="M146.192,127.593l-102.494,0l51.644,-118.457l50.85,118.457Zm-91.042,-7.5l79.66,0l-39.521,-92.068l-40.139,92.068Z"/></g><text x="239.973px" y="96.281px" style="font-family:'Oxygen-Light', 'Oxygen';font-weight:300;font-size:57.966px;">B<tspan x="277.121px 316.266px 331.361px 375.351px 418.49px " y="96.281px 96.281px 96.281px 96.281px 96.281px ">RIDGE</tspan></text><path d="M217.92,9.136l0,132.089" style="fill:none;stroke:#000;stroke-width:3px;"/></svg>